<svg width="25" height="21" fill="none" xmlns="http://www.w3.org/2000/svg"><path d="M23.387 0H1.613A1.615 1.615 0 0 0 0 1.613v13.71a1.615 1.615 0 0 0 1.613 1.613h8.311l-.537 1.612H8.065a.403.403 0 0 0-.404.404v.806H4.032a.403.403 0 1 0 0 .806h17.742a.403.403 0 0 0 0-.806H17.34v-.806a.403.403 0 0 0-.403-.404h-1.323l-.537-1.612h8.311A1.616 1.616 0 0 0 25 15.323V1.613A1.615 1.615 0 0 0 23.387 0Zm-6.855 19.355v.403H8.468v-.403h8.064Zm-6.295-.807.538-1.612h3.45l.538 1.612h-4.526Zm13.957-3.225a.807.807 0 0 1-.807.806H1.613a.807.807 0 0 1-.807-.806v-.807h23.387v.807ZM6.837 10.08l-.152 3.629h-.47l-.15-3.63h.772Zm-.717-.807.27-1.613h.122l.27 1.613H6.12Zm.33-2.42c-.436 0-.806-.553-.806-1.209 0-.414.423-1.015.806-1.439.345.383.807.996.807 1.44 0 .655-.37 1.209-.806 1.209Zm4.389-.806.047.096v.308H9.274v-.308l.048-.096h1.518Zm-1.115-.806.356-.711.356.71h-.712Zm1.162 2.016v6.401c0 .017.001.034.004.05H9.27a.417.417 0 0 0 .003-.05v-6.4h1.613Zm3.63-1.613h1.209v.807h-.403a.403.403 0 1 0 0 .806h.403v.807h-1.21a.403.403 0 0 0 0 .806h1.21v.806h-.403a.403.403 0 1 0 0 .807h.403v.806h-1.21a.403.403 0 0 0 0 .807h1.21v1.613h-2.823V4.032h2.823v.807h-1.21a.403.403 0 0 0 0 .806Zm4.838 4.839v3.175c0 .017.001.034.003.05h-1.62a.405.405 0 0 0 .004-.05v-3.175h1.613Zm-1.613-.807V9.37l.806-1.612.807 1.612v.308h-1.613Zm6.451 4.033h-4.035a.425.425 0 0 0 .003-.05V9.273a.41.41 0 0 0-.042-.18l-1.21-2.42a.404.404 0 0 0-.721 0l-1.21 2.42a.406.406 0 0 0-.043.18v4.385c0 .017.002.034.004.05h-.407V3.63a.403.403 0 0 0-.403-.403H12.5a.403.403 0 0 0-.403.403v10.08h-.407a.405.405 0 0 0 .004-.05V6.05a.406.406 0 0 0-.043-.181l-1.21-2.42a.403.403 0 0 0-.721 0l-1.21 2.42a.407.407 0 0 0-.042.18v7.611a.42.42 0 0 0 .003.05h-.978l.168-4.015v-.04a.407.407 0 0 0-.005-.042V9.61l-.373-2.239c.468-.353.782-.995.782-1.727 0-1.036-1.202-2.184-1.339-2.311a.404.404 0 0 0-.55 0C6.04 3.46 4.84 4.609 4.84 5.645c0 .732.313 1.374.781 1.727l-.373 2.239a.404.404 0 0 0-.005.043v.04l.168 4.016H.806V1.613a.807.807 0 0 1 .807-.807h21.774a.807.807 0 0 1 .806.807V13.71Z" fill="#000"/><path d="M4.436 14.92h-2.42a.403.403 0 0 0 0 .806h2.42a.403.403 0 0 0 0-.807Zm1.612 0h-.403a.403.403 0 0 0 0 .806h.403a.403.403 0 0 0 0-.807Zm4.032-7.259a.403.403 0 0 0-.403.403V12.5a.403.403 0 0 0 .807 0V8.064a.403.403 0 0 0-.403-.403Zm8.468 3.226a.404.404 0 0 0-.403.403v1.21a.403.403 0 0 0 .807 0v-1.21a.403.403 0 0 0-.404-.403ZM2.016 2.42h3.226a.403.403 0 0 0 0-.807H2.016a.403.403 0 1 0 0 .806Zm0 1.21h.807a.403.403 0 1 0 0-.807h-.807a.403.403 0 1 0 0 .806Zm19.354 9.273h1.614a.404.404 0 0 0 0-.806H21.37a.403.403 0 0 0 0 .806Zm1.21-1.209h.404a.403.403 0 1 0 0-.807h-.403a.404.404 0 0 0 0 .806Z" fill="#000"/></svg>