<svg width="25" height="24" fill="none" xmlns="http://www.w3.org/2000/svg"><path d="M0 0v20.52h8.024v1.468H6.557v1.465h11.885v-1.465h-1.466V20.52H25V0H0Zm15.511 21.988H9.489V20.52h6.022v1.468Zm8.024-2.932H1.465v-2.934h22.07v2.934Zm0-4.399H1.465V1.465h22.07v13.192Z" fill="#000"/><path d="M9.958 5.413 8.922 4.378 5.24 8.06l3.683 3.684 1.036-1.036L7.31 8.06l2.648-2.648Zm6.12-1.035-1.036 1.035 2.648 2.648-2.648 2.648 1.036 1.036L19.76 8.06l-3.683-3.683Zm-3.446-.734-1.7 8.55 1.436.285 1.7-8.55-1.436-.285Z" fill="#000"/></svg>