<svg width="25" height="25" fill="none" xmlns="http://www.w3.org/2000/svg"><path d="m20.265 19.146-.65.433 1.53 2.296H3.855l1.823-2.734h9.924v-.782H5.47a.39.39 0 0 0-.325.174L2.8 22.05a.393.393 0 0 0-.066.217v1.172a.781.781 0 0 0 .782.78h17.968a.781.781 0 0 0 .782-.78v-1.172a.393.393 0 0 0-.066-.217l-1.935-2.903Zm-16.75 4.291v-.78h17.97v.78H3.514ZM20.313.781H4.688a1.175 1.175 0 0 0-1.172 1.172V12.11a1.175 1.175 0 0 0 1.171 1.172h5.47v1.563H8.593a.39.39 0 0 0-.39.39v1.563a.39.39 0 0 0 .39.39h7.812a.391.391 0 0 0 .39-.39v-1.563a.39.39 0 0 0-.39-.39h-1.562V13.28h5.469a1.175 1.175 0 0 0 1.171-1.172V1.953A1.176 1.176 0 0 0 20.312.781Zm-4.297 14.844v.781H8.984v-.781h7.032Zm-5.078-.781V13.28h3.124v1.563h-3.124Zm9.765-2.735a.39.39 0 0 1-.39.391H4.688a.39.39 0 0 1-.391-.39v-1.172h16.406v1.171Zm0-1.953H4.297V1.953a.39.39 0 0 1 .39-.39h15.625a.39.39 0 0 1 .391.39v8.203Z" fill="#000"/><path d="M18.36 11.328h.78v.781h-.78v-.78ZM8.984 9.375h1.563a.39.39 0 0 0 .39-.39v-.391h3.126v.39a.39.39 0 0 0 .39.391h1.563a.39.39 0 0 0 .39-.39V7.421a.39.39 0 0 0-.39-.39h-.391V4.686h.39a.39.39 0 0 0 .391-.39V2.734a.39.39 0 0 0-.39-.39h-1.563a.39.39 0 0 0-.39.39v.391h-3.126v-.39a.39.39 0 0 0-.39-.391H8.984a.39.39 0 0 0-.39.39v1.563a.39.39 0 0 0 .39.39h.391v2.344h-.39a.39.39 0 0 0-.391.39v1.563a.39.39 0 0 0 .39.391Zm6.641-.781h-.781v-.781h.781v.78Zm-.781-5.469h.781v.781h-.781v-.781Zm-5.469 0h.781v.781h-.781v-.781Zm.781 1.563h.39a.39.39 0 0 0 .392-.391v-.39h3.124v.39a.39.39 0 0 0 .391.39h.39v2.344h-.39a.39.39 0 0 0-.39.39v.391h-3.126v-.39a.39.39 0 0 0-.39-.39h-.39V4.686Zm-.781 3.125h.781v.78h-.781v-.78Zm-.391 12.5h5.47v.78h-5.47v-.78Zm14.403-5.923-1.106-1.105a.386.386 0 0 0-.277-.113.38.38 0 0 0-.274.113l-5.25 5.25a.384.384 0 0 0-.093.152l-.278.829a.395.395 0 0 0 .094.398l-.55.555.55.55.555-.55a.386.386 0 0 0 .398.093l.828-.277a.384.384 0 0 0 .153-.094l5.25-5.25a.39.39 0 0 0 0-.55Zm-5.735 5.184-.511.168-.215-.21.172-.512 3.8-3.801.555.55-3.8 3.805Zm4.352-4.355-.55-.551.55-.555.555.555-.555.55Z" fill="#000"/></svg>