<svg width="21" height="25" fill="none" xmlns="http://www.w3.org/2000/svg"><path d="m17.717 16.333-1.467-.43-3.193-2.086v-.478a4.248 4.248 0 0 0 1.677-2.984.976.976 0 0 0 .819-.961V6.4a.722.722 0 0 0 .301-.59V4.29l2.203-.376a.77.77 0 0 0 .648-.715.77.77 0 0 0-.542-.799L10.736.037a.777.777 0 0 0-.474 0L2.836 2.399a.77.77 0 0 0-.543.799.771.771 0 0 0 .3.565v1.991h-.019a.76.76 0 0 0-.758.759V7.5l-.49 2.874a.815.815 0 0 0 .804.952h1.658a.815.815 0 0 0 .803-.952L4.101 7.5v-.988a.76.76 0 0 0-.758-.759h-.018V3.98l1.82.31v1.52c0 .241.118.456.301.589l.001 1.68v1.314c0 .484.355.887.819.961a4.25 4.25 0 0 0 1.675 2.983v.48l-3.192 2.085-1.466.43a3.724 3.724 0 0 0-2.676 3.575V21a.366.366 0 0 0 .732 0v-1.092c0-1.32.885-2.5 2.15-2.872l1.367-.401 5.457 3.243a.37.37 0 0 0 .374 0l5.458-3.243 1.366.4a3.01 3.01 0 0 1 2.15 2.873v3.537c0 .454-.37.823-.823.823h-1.614v-1.579a.366.366 0 1 0-.732 0v1.579H4.507v-1.579a.366.366 0 1 0-.733 0v1.579H2.162a.824.824 0 0 1-.823-.823v-.734a.366.366 0 0 0-.732 0v.734c0 .857.697 1.555 1.555 1.555h16.676c.858 0 1.555-.698 1.555-1.555v-3.537a3.724 3.724 0 0 0-2.676-3.575Zm-13.93-5.739H2.13a.083.083 0 0 1-.082-.096l.443-2.6h.935l.443 2.6a.083.083 0 0 1-.082.096ZM3.37 6.513v.653h-.82v-.653c0-.015.01-.027.025-.027h.769c.014 0 .026.012.026.027ZM9.19 18.22l.146.224-3.739-2.221 2.373-1.55a7.692 7.692 0 0 0 1.22 3.547Zm-.002-1.58a9.414 9.414 0 0 0 2.624 0c-.166.41-.372.805-.616 1.18l-.696 1.07-.696-1.07a6.994 6.994 0 0 1-.616-1.18Zm2.622 1.58a7.69 7.69 0 0 0 1.22-3.547l2.373 1.55-3.739 2.221.146-.224Zm2.142-11.684h.868v1.177h-.431a.438.438 0 0 1-.437-.437v-.74ZM3.058 3.097 10.485.735a.048.048 0 0 1 .029 0l7.427 2.362c.015.005.036.012.034.05-.003.038-.025.042-.04.044l-2.456.418-.922-.114a.366.366 0 0 0-.09.727l.655.081v1.502H5.878V4.302l3.79-.469a6.783 6.783 0 0 1 1.663 0l1.434.178a.366.366 0 0 0 .09-.727l-1.434-.177a7.513 7.513 0 0 0-1.843 0L5.52 3.61l-2.456-.42c-.016-.002-.037-.006-.04-.044-.003-.038.018-.045.034-.05Zm3.121 4.617V6.537h.87v.74a.438.438 0 0 1-.438.437h-.432Zm.806 2.453a.567.567 0 0 0-.564-.532.242.242 0 0 1-.242-.241v-.948h.432a1.17 1.17 0 0 0 1.17-1.17v-.739h5.438v.74c0 .644.525 1.17 1.17 1.17h.432v.947a.242.242 0 0 1-.242.241.567.567 0 0 0-.564.532 3.527 3.527 0 0 1-3.515 3.298 3.527 3.527 0 0 1-3.515-3.298Zm3.515 4.03c.651 0 1.27-.149 1.825-.414v.232c0 .627-.084 1.244-.247 1.84a8.65 8.65 0 0 1-3.156 0 6.978 6.978 0 0 1-.247-1.84l-.002-.023v-.209a4.228 4.228 0 0 0 1.827.414Z" fill="#000"/></svg>