<svg width="156" height="66" fill="none" xmlns="http://www.w3.org/2000/svg"><g clip-path="url(#a)" fill="#3F4E65"><path d="M48.513 24.674a16.76 16.76 0 0 0-3.319-9.896.513.513 0 0 0-.117-.158 21.426 21.426 0 0 0-5.124-4.89 1.467 1.467 0 0 0-.162-.112A26.63 26.63 0 0 0 29.696 5.57h-.045a.13.13 0 0 0-.072 0 28.09 28.09 0 0 0-2.823-.374c-.073-1.988-.482-3.216-.964-3.98A2.322 2.322 0 0 0 24.352.05h-.205a2.338 2.338 0 0 0-1.445 1.165c-.486.765-.9 1.998-.963 3.986-9.361.792-17.156 5.906-20.263 12.825a.834.834 0 0 0-.045.112 16.181 16.181 0 0 0-1.395 6.563c0 5.358 2.607 10.347 7.348 14.067a12.728 12.728 0 0 0 .59 6.23c-1.117 3.599-2.107 8.192-.225 12.096v.036c2.17 4.453 6.42 5.659 10.532 6.82a30.497 30.497 0 0 1 5.686 1.992l.063.027h.041a.603.603 0 0 0 .126 0h.068a.48.48 0 0 0 .234-.058 30.498 30.498 0 0 1 5.691-2.02c2.341-.661 4.732-1.35 6.754-2.622l.059-.041a10.053 10.053 0 0 0 3.719-4.156c1.904-3.91.9-8.444-.153-11.957a.2.2 0 0 0-.036-.068c1.071-2.6.774-5.398.635-6.333 4.737-3.702 7.344-8.682 7.344-14.04Zm-1.014 0a15.372 15.372 0 0 1-.616 4.3 17.095 17.095 0 0 0-2.752-4.025c-2.048-2.25-5.673-5.025-11.553-6.114a65.048 65.048 0 0 1 11.914-3.288 15.734 15.734 0 0 1 3.007 9.127Zm-3.678-10.031a63.642 63.642 0 0 0-15.31 4.809c-.315-2.55-1.45-4.557-2.953-5.29.05-.18.09-.351.13-.522a65.888 65.888 0 0 1 13.788-3.032 20.6 20.6 0 0 1 4.345 4.035Zm-5.894 32.47-.27.238a7.505 7.505 0 0 1-3.305 1.475h-.18c-2.517.45-5.777.112-9.744-1.053h-.293c-1.807.552-3.66.936-5.538 1.147h-.081c-3.517.342-6.164-.278-7.907-1.87-2.022-1.764-2.4-4.53-2.4-6.402a10.075 10.075 0 0 0 3.697 3.9c2.589 1.53 5.853 1.8 9.712.86a2.942 2.942 0 0 0 2.62 1.583 2.938 2.938 0 0 0 2.617-1.584c3.858.958 7.127.67 9.712-.859a10.008 10.008 0 0 0 3.697-3.9c.036 1.871-.343 4.638-2.337 6.464ZM35.675 60.89a26.633 26.633 0 0 1-5.475 1.992 12.45 12.45 0 0 1-2.202-2.784c-.9-1.615-.45-3.392.22-5.074.113-.288.249-.599.393-.922.549-1.246 1.206-2.749.981-4.139.738.09 1.481.136 2.225.14.746.002 1.491-.055 2.228-.171.284.8-.121 2.177-.486 3.414A9.541 9.541 0 0 0 33.005 56a5.798 5.798 0 0 0 2.67 4.89ZM24.27 64.939c-.73-.54-3.255-2.622-3.742-6.028-.45-3.095.878-6.46 3.913-10.008a34.02 34.02 0 0 0 4.08.9c.36 1.142-.275 2.586-.838 3.868a28.69 28.69 0 0 0-.405.967c-.743 1.912-1.279 3.954-.162 5.938a13.25 13.25 0 0 0 1.967 2.604 28.432 28.432 0 0 0-4.817 1.76h.004Zm11.793-21.246c-2.423 1.43-5.566 1.647-9.321.648a.502.502 0 0 0-.648.36 1.926 1.926 0 0 1-1.828 1.287 1.92 1.92 0 0 1-1.833-1.305.486.486 0 0 0-.243-.306.536.536 0 0 0-.423-.036c-3.747.994-6.876.778-9.303-.648a9.394 9.394 0 0 1-4.007-5.105c.41-.828 2.418-4.589 6.93-8.961.481-.279 6.605-3.626 17.767.027 4.48 4.35 6.524 8.151 6.925 8.938a9.417 9.417 0 0 1-4.02 5.088l.004.013ZM20.952 20.896c0-2.578.94-4.845 2.22-5.677.139-.099.29-.179.45-.239.159-.06.326-.096.495-.108h.19c.171.004.341.036.503.095.16.052.31.125.45.216 1.14.706 2.022 2.546 2.225 4.737.035.324.052.65.05.976v.17a9.766 9.766 0 0 1-.343 2.475 8.743 8.743 0 0 1-.346.985c-.608 1.444-1.558 2.393-2.612 2.393s-2.004-.945-2.612-2.389a6.977 6.977 0 0 1-.355-1.034 9.762 9.762 0 0 1-.315-2.6Zm1.067 6.046c-1.524.068-3.034.31-4.503.72a48.66 48.66 0 0 1 3.251-2.529 5.96 5.96 0 0 0 1.252 1.809Zm4.318.143a5.687 5.687 0 0 0 1.391-1.952c1.35.976 2.603 1.97 3.72 2.947a34.186 34.186 0 0 0-5.111-.994Zm-.419-14.597c.395-1.795.657-3.618.784-5.452.9-.175 1.823-.342 2.773-.495a26.032 26.032 0 0 1 8.627 3.212 66.659 66.659 0 0 0-12.184 2.735ZM23.482 1.805a1.86 1.86 0 0 1 .743-.774c.317.18.575.45.743.774.333.562.675 1.56.747 3.283V6.21c0 .328-.027.67-.05 1.048a39.01 39.01 0 0 1-.9 5.614c-.072.328-.144.66-.225 1.007a1.89 1.89 0 0 0-.315-.022 3.306 3.306 0 0 0-.37.027c-.049-.212-.103-.419-.148-.63a42.047 42.047 0 0 1-.9-5.33c-.036-.36-.063-.702-.077-1.026-.013-.324-.027-.54-.031-.792V5.093c.108-1.727.454-2.726.783-3.288Zm-1.765 4.372c0 .31.023.639.045.976-9.24 2.51-14.958 6.217-17.867 8.547 3.567-5.168 10.136-8.848 17.822-9.523ZM2.324 18.521c.356-.383 2.355-2.452 6.304-4.81a53.426 53.426 0 0 1 13.22-5.514c.206 1.828.522 3.643.945 5.434a44.816 44.816 0 0 0-13.625 8.245c-4.052 3.671-6.115 7.09-6.948 8.736a15.223 15.223 0 0 1 .108-12.087l-.004-.004Zm.45 13.279c.63-1.422 5.147-10.657 18.948-16.644-1.086 1.268-1.779 3.342-1.779 5.735-.01 1.087.141 2.17.45 3.212-8.014 5.641-11.666 11.745-12.67 13.64A18.817 18.817 0 0 1 2.77 31.8h.004Zm5.854 14.494a7.65 7.65 0 0 0 1.288 1.56 7.904 7.904 0 0 0 2.922 1.674 7.657 7.657 0 0 0-2.855 1.646 7.092 7.092 0 0 0-2.004 3.558c-.67-2.78-.117-5.812.626-8.438h.023Zm.099 10.476c.288-6.801 6.66-6.698 6.938-6.689a.365.365 0 0 0 .14-.022c.338 0 .684.027 1.036 0-2.09 1.646-3.355 3.553-3.76 5.69a9.214 9.214 0 0 0 .833 5.654c-2.161-.922-4.016-2.258-5.21-4.633h.023Zm6.686 5.223c-.373-.572-1.886-3.109-1.319-6.046.45-2.28 2.013-4.291 4.674-5.978a27.875 27.875 0 0 0 4.106-.756c-2.66 3.432-3.791 6.748-3.34 9.842a9.815 9.815 0 0 0 2.224 4.872c-1.059-.369-2.14-.675-3.202-.976-1.063-.301-2.148-.607-3.143-.958ZM36.68 60.27a4.834 4.834 0 0 1-2.647-4.31 9.07 9.07 0 0 1 .509-2.343c.414-1.386.833-2.812.522-3.9a8.7 8.7 0 0 0 2.377-.967c0 3.882 2.14 5.55 3.03 6.081a9.238 9.238 0 0 1-.652 1.84 9.049 9.049 0 0 1-3.157 3.599h.018Zm4.003-6.518c-.878-.644-2.427-2.285-2.193-5.772l.145-.126c.479-.44.898-.94 1.247-1.489.621 2.277 1.13 4.886.783 7.387h.018Zm.113-15.996c-.986-1.863-4.624-7.945-12.68-13.608a10.7 10.7 0 0 0 .478-3.252v-.324a40.763 40.763 0 0 1 2.188-.985c6.56.782 10.464 3.693 12.585 6.01a15.24 15.24 0 0 1 3.04 4.8 18.256 18.256 0 0 1-5.63 7.359h.019Z"/><path d="M17.529 35.987c-1.5 0-2.841.657-3.346 1.637a.508.508 0 0 0 .221.68c.072.035.15.053.23.053a.503.503 0 0 0 .45-.274c.329-.639 1.35-1.089 2.445-1.089 1.094 0 2.116.45 2.45 1.089a.504.504 0 0 0 .931-.076.508.508 0 0 0-.031-.387c-.513-.976-1.864-1.633-3.35-1.633Zm13.45 0c-1.5 0-2.846.657-3.346 1.637a.499.499 0 0 0 .22.68c.072.035.15.053.23.053a.503.503 0 0 0 .45-.274c.33-.639 1.351-1.089 2.446-1.089 1.094 0 2.116.45 2.45 1.089a.502.502 0 0 0 .679.22.514.514 0 0 0 .22-.683c-.508-.976-1.855-1.633-3.35-1.633Zm32.891-6.91c3.292 0 6.858 1.8 7.47 6.033h-3.993c-.568-1.61-1.774-2.34-3.476-2.34-2.382 0-3.95 1.8-3.95 4.422 0 2.34 1.545 4.377 3.95 4.404 1.729 0 3.111-.863 3.543-2.564h3.994c-.59 4.499-4.151 6.258-7.537 6.258-4.053.022-8.128-2.7-8.15-8.098-.023-5.398 4.11-8.115 8.15-8.115Zm13.896 15.619 2.485-5.12-5.345-9.725v-.611h4.54l2.998 5.847h.113l2.724-5.848h4.426v.612l-7.56 15.295h-4.381v-.45Zm16.939.449h-3.976v-.589l7.15-15.488h1.734l7.204 15.475v.602h-3.976l-4.084-9.298-4.052 9.298Zm13.963-12.257v-3.63h11.801v3.63h-3.881v12.258h-4.016V32.888h-3.904ZM133.5 43.135h-6.263l-.932 2.01h-3.972v-.589l7.151-15.488h1.747l7.173 15.488v.59h-3.972l-.932-2.011Zm-3.152-7.648-1.801 4.175h3.634l-1.833-4.175ZM156 45.146h-4.156v-6.388h-4.903v6.388h-4.152V29.257h4.152v5.758h4.903v-5.758H156v15.889Z"/></g><defs><clipPath id="a"><path fill="#fff" d="M0 0h156v66H0z"/></clipPath></defs></svg>